<?xml version="1.0" encoding="UTF-8"?>
<svg xmlns="http://www.w3.org/2000/svg" xmlns:xlink="http://www.w3.org/1999/xlink" width="20px" height="20px" viewBox="0 0 20 20" version="1.1">
<g id="surface1">
<path style=" stroke:none;fill-rule:nonzero;fill:rgb(0%,0%,0%);fill-opacity:1;" d="M 11.5625 12.1875 C 14.324219 12.1875 16.5625 9.949219 16.5625 7.1875 C 16.5625 4.425781 14.324219 2.1875 11.5625 2.1875 L 6.875 2.1875 C 6.355469 2.1875 5.9375 2.605469 5.9375 3.125 L 5.9375 10.3125 L 4.375 10.3125 C 3.855469 10.3125 3.4375 10.730469 3.4375 11.25 C 3.4375 11.769531 3.855469 12.1875 4.375 12.1875 L 5.9375 12.1875 L 5.9375 13.4375 L 4.375 13.4375 C 3.855469 13.4375 3.4375 13.855469 3.4375 14.375 C 3.4375 14.894531 3.855469 15.3125 4.375 15.3125 L 5.9375 15.3125 L 5.9375 16.875 C 5.9375 17.394531 6.355469 17.8125 6.875 17.8125 C 7.394531 17.8125 7.8125 17.394531 7.8125 16.875 L 7.8125 15.3125 L 11.25 15.3125 C 11.769531 15.3125 12.1875 14.894531 12.1875 14.375 C 12.1875 13.855469 11.769531 13.4375 11.25 13.4375 L 7.8125 13.4375 L 7.8125 12.1875 Z M 7.8125 4.0625 L 11.5625 4.0625 C 13.289062 4.0625 14.6875 5.460938 14.6875 7.1875 C 14.6875 8.914062 13.289062 10.3125 11.5625 10.3125 L 7.8125 10.3125 Z M 7.8125 4.0625 "/>
</g>
</svg>
